<svg xmlns="http://www.w3.org/2000/svg" viewBox="0 0 512 512" role="img" aria-label="TOPIK II Korean Learning">
  <defs>
    <linearGradient id="bg512" x1="76" x2="436" y1="46" y2="466" gradientUnits="userSpaceOnUse">
      <stop stop-color="#111827"/>
      <stop offset="0.45" stop-color="#172554"/>
      <stop offset="1" stop-color="#0f766e"/>
    </linearGradient>
    <radialGradient id="glow512" cx="0" cy="0" r="1" gradientUnits="userSpaceOnUse" gradientTransform="translate(371 128) rotate(133) scale(291)">
      <stop stop-color="#60a5fa" stop-opacity="0.48"/>
      <stop offset="1" stop-color="#60a5fa" stop-opacity="0"/>
    </radialGradient>
    <linearGradient id="page512" x1="119" x2="393" y1="278" y2="400" gradientUnits="userSpaceOnUse">
      <stop stop-color="#ffffff"/>
      <stop offset="1" stop-color="#dbeafe"/>
    </linearGradient>
    <filter id="shadow512" x="-20%" y="-20%" width="140%" height="140%">
      <feDropShadow dx="0" dy="28" stdDeviation="23" flood-color="#020617" flood-opacity="0.35"/>
    </filter>
  </defs>
  <rect width="512" height="512" rx="124" fill="url(#bg512)"/>
  <rect width="512" height="512" rx="124" fill="url(#glow512)"/>
  <circle cx="388" cy="126" r="61" fill="#38bdf8" opacity="0.95"/>
  <circle cx="130" cy="382" r="70" fill="#34d399" opacity="0.9"/>
  <path d="M115 315c48-34 104-34 141 9 37-43 93-43 141-9v91c-48-28-99-25-141 11-42-36-93-39-141-11v-91Z" fill="url(#page512)" filter="url(#shadow512)"/>
  <path d="M256 324v96" stroke="#2563eb" stroke-width="18" stroke-linecap="round"/>
  <path d="M152 349c32-14 66-13 93 7M267 356c27-20 62-23 93-7" stroke="#bfdbfe" stroke-width="14" stroke-linecap="round"/>
  <text x="256" y="247" text-anchor="middle" font-family="Arial, sans-serif" font-size="178" font-weight="900" fill="#ffffff">한</text>
  <path d="M168 270h176" stroke="#93c5fd" stroke-width="18" stroke-linecap="round"/>
  <text x="256" y="466" text-anchor="middle" font-family="Arial, sans-serif" font-size="48" font-weight="800" letter-spacing="4" fill="#e0f2fe">TOPIK II</text>
</svg>
