<svg xmlns="http://www.w3.org/2000/svg" viewBox="0 0 192 192" role="img" aria-label="TOPIK II Korean Learning">
  <defs>
    <linearGradient id="bg192" x1="28" x2="164" y1="18" y2="174" gradientUnits="userSpaceOnUse">
      <stop stop-color="#111827"/>
      <stop offset="0.48" stop-color="#172554"/>
      <stop offset="1" stop-color="#0f766e"/>
    </linearGradient>
    <linearGradient id="page192" x1="45" x2="147" y1="104" y2="150" gradientUnits="userSpaceOnUse">
      <stop stop-color="#ffffff"/>
      <stop offset="1" stop-color="#dbeafe"/>
    </linearGradient>
    <filter id="shadow192" x="-20%" y="-20%" width="140%" height="140%">
      <feDropShadow dx="0" dy="10" stdDeviation="9" flood-color="#020617" flood-opacity="0.35"/>
    </filter>
  </defs>
  <rect width="192" height="192" rx="46" fill="url(#bg192)"/>
  <circle cx="146" cy="48" r="23" fill="#38bdf8" opacity="0.95"/>
  <circle cx="49" cy="143" r="26" fill="#34d399" opacity="0.9"/>
  <path d="M43 118c18-13 39-13 53 3 14-16 35-16 53-3v34c-18-10-37-9-53 4-16-13-35-14-53-4v-34Z" fill="url(#page192)" filter="url(#shadow192)"/>
  <path d="M96 121v36" stroke="#2563eb" stroke-width="7" stroke-linecap="round"/>
  <path d="M57 131c12-5 25-5 35 3M100 134c10-8 23-9 35-3" stroke="#bfdbfe" stroke-width="5" stroke-linecap="round"/>
  <text x="96" y="92" text-anchor="middle" font-family="Arial, sans-serif" font-size="66" font-weight="900" fill="#ffffff">한</text>
  <path d="M63 101h66" stroke="#93c5fd" stroke-width="7" stroke-linecap="round"/>
  <text x="96" y="175" text-anchor="middle" font-family="Arial, sans-serif" font-size="18" font-weight="800" letter-spacing="1.5" fill="#e0f2fe">TOPIK II</text>
</svg>
